<svg width="68" height="69" viewBox="0 0 68 69" fill="none" xmlns="http://www.w3.org/2000/svg">
<path d="M40.3317 50.9615L34.0137 44.7067C31.1099 41.8322 29.6579 40.3948 27.9862 39.8556C26.5158 39.3811 24.9331 39.3811 23.4624 39.8556C21.7908 40.3948 20.3389 41.8322 17.435 44.7067L2.72359 59.4983M40.3317 50.9615L41.5873 49.7179C44.5525 46.7828 46.0347 45.3153 47.7358 44.7798C49.2316 44.3086 50.8389 44.327 52.3237 44.8323C54.0116 45.4071 55.46 46.908 58.3563 49.9104L61.4311 53.0269M40.3317 50.9615L54.8827 65.7439M2.72359 59.4983C2.83657 60.4547 3.03225 61.2057 3.37129 61.8701C4.07668 63.2521 5.2023 64.3759 6.58673 65.0799C8.16062 65.8805 10.221 65.8805 14.3417 65.8805H49.6588C51.9444 65.8805 53.5962 65.8805 54.8827 65.7439M2.72359 59.4983C2.56934 58.1924 2.56934 56.503 2.56934 54.1283V18.8717C2.56934 14.758 2.56934 12.7012 3.37129 11.13C4.07668 9.74788 5.2023 8.62423 6.58673 7.92005C8.16062 7.11947 10.221 7.11947 14.3417 7.11947H28.3214M54.8827 65.7439C55.9154 65.6341 56.713 65.4365 57.4138 65.0799C58.7982 64.3759 59.9239 63.2521 60.6291 61.8701C61.4311 60.299 61.4311 58.242 61.4311 54.1283V40.1726M54.0734 25.4823V14.4646M54.0734 14.4646V3.4469M54.0734 14.4646H65.11M54.0734 14.4646H43.0368" stroke="white" stroke-width="5" stroke-linecap="round" stroke-linejoin="round"/>
</svg>
