<svg width="25" height="25" viewBox="0 0 25 25" fill="none" xmlns="http://www.w3.org/2000/svg">
<path d="M22.1666 6.66683L12.2291 16.6043C11.2395 17.5939 8.30195 18.0522 7.6457 17.3959C6.98945 16.7397 7.43737 13.8022 8.42695 12.8126L18.3749 2.86472C18.6202 2.59707 18.9172 2.38193 19.248 2.23224C19.5788 2.08255 19.9365 2.0014 20.2995 1.99376C20.6624 1.98612 21.0232 2.0521 21.36 2.18774C21.6968 2.32337 22.0026 2.52587 22.259 2.78296C22.5153 3.04004 22.717 3.34639 22.8517 3.68354C22.9864 4.0207 23.0515 4.38163 23.0428 4.7446C23.0342 5.10757 22.952 5.46506 22.8015 5.79542C22.6508 6.12579 22.4349 6.42224 22.1666 6.66683Z" stroke="white" stroke-width="1.5" stroke-linecap="round" stroke-linejoin="round"/>
<path d="M11.4583 4.16675H6.24992C5.14485 4.16675 4.08511 4.60573 3.3037 5.38713C2.5223 6.16854 2.08325 7.22834 2.08325 8.33341V18.7501C2.08325 19.8552 2.5223 20.915 3.3037 21.6963C4.08511 22.4778 5.14485 22.9167 6.24992 22.9167H17.7083C20.0103 22.9167 20.8333 21.0417 20.8333 18.7501V13.5417" stroke="white" stroke-width="1.5" stroke-linecap="round" stroke-linejoin="round"/>
</svg>
