<svg width="151" height="150" viewBox="0 0 151 150" fill="none" xmlns="http://www.w3.org/2000/svg">
<path d="M30.0624 111.97L29.7448 112.569L30.1822 113.085C41.0076 125.879 57.1891 134.065 75.25 134.065C93.3109 134.065 109.492 125.879 120.318 113.085L120.755 112.569L120.438 111.97C114.59 100.959 103.133 93.3548 89.7661 93.3548C88.93 93.3548 88.1059 93.494 87.3278 93.7308L87.3186 93.7336L87.3094 93.7366C83.4856 94.9816 79.4482 95.7742 75.25 95.7742C71.0528 95.7742 67.0452 94.982 63.1885 93.7359L63.1804 93.7333L63.1722 93.7308C62.3941 93.494 61.57 93.3548 60.7339 93.3548C47.3665 93.3548 35.91 100.959 30.0624 111.97ZM1.25 75C1.25 34.1208 34.3708 1 75.25 1C116.129 1 149.25 34.1208 149.25 75C149.25 115.879 116.129 149 75.25 149C34.3708 149 1.25 115.879 1.25 75ZM102.863 55.6452C102.863 40.3953 90.4999 28.0323 75.25 28.0323C60.0001 28.0323 47.6371 40.3953 47.6371 55.6452C47.6371 70.895 60.0001 83.2581 75.25 83.2581C90.4999 83.2581 102.863 70.895 102.863 55.6452Z" fill="#FCF6FF" stroke="url(#paint0_linear_618_13814)" stroke-width="2"/>
<defs>
<linearGradient id="paint0_linear_618_13814" x1="75.25" y1="0" x2="75.25" y2="150" gradientUnits="userSpaceOnUse">
<stop stop-color="#C98FEC"/>
<stop offset="1" stop-color="#A89BFF"/>
</linearGradient>
</defs>
</svg>