<svg width="32" height="31" viewBox="0 0 32 31" fill="none" xmlns="http://www.w3.org/2000/svg">
<path d="M15.264 15.5046H5.13166M4.84446 16.9531L3.17045 22.4067C2.25361 25.3935 1.79519 26.8869 2.12417 27.8065C2.40985 28.6052 3.02345 29.2107 3.7806 29.4413C4.65248 29.7065 5.96934 29.0602 8.60308 27.7678L25.4878 19.4813C28.0585 18.2196 29.3439 17.5889 29.7411 16.7126C30.0863 15.9512 30.0863 15.0578 29.7411 14.2965C29.3439 13.4203 28.0585 12.7895 25.4878 11.5278L8.57396 3.22716C5.94815 1.93852 4.63527 1.29419 3.76426 1.55851C3.00782 1.78805 2.39429 2.39193 2.10761 3.18911C1.77749 4.10704 2.23102 5.59722 3.13808 8.57759L4.84771 14.1951C5.00349 14.707 5.08139 14.963 5.11213 15.2246C5.13942 15.457 5.13914 15.6921 5.11131 15.9244C5.07994 16.186 5.00145 16.4417 4.84446 16.9531Z" stroke="url(#paint0_linear_514_15005)" stroke-width="3" stroke-linecap="round" stroke-linejoin="round"/>
<defs>
<linearGradient id="paint0_linear_514_15005" x1="2" y1="15.6022" x2="29.7987" y2="15.6022" gradientUnits="userSpaceOnUse">
<stop stop-color="#A89BFF"/>
<stop offset="1" stop-color="#C98FEC"/>
</linearGradient>
</defs>
</svg>
