<svg width="26" height="26" viewBox="0 0 26 26" fill="none" xmlns="http://www.w3.org/2000/svg">
<path d="M14.8765 23.5838L15.4638 22.5917L14.0653 21.7639L13.478 22.7561L14.8765 23.5838ZM10.5364 22.5917L11.1236 23.5838L12.522 22.7561L11.9347 21.7639L10.5364 22.5917ZM13.478 22.7561C13.2693 23.1089 12.7309 23.1089 12.522 22.7561L11.1236 23.5838C11.9617 24.9997 14.0385 24.9997 14.8765 23.5838L13.478 22.7561ZM11.3751 2.97913H14.6251V1.35413H11.3751V2.97913ZM23.0209 11.375V12.4583H24.6459V11.375H23.0209ZM2.97925 12.4583V11.375H1.35425V12.4583H2.97925ZM1.35425 12.4583C1.35425 13.7091 1.3538 14.6879 1.40767 15.4773C1.46204 16.2741 1.57441 16.9372 1.82841 17.5504L3.32972 16.9286C3.1714 16.5464 3.07763 16.0807 3.02891 15.3667C2.97969 14.6454 2.97925 13.7313 2.97925 12.4583H1.35425ZM8.45279 19.7617C7.09273 19.7382 6.38008 19.6517 5.82147 19.4203L5.19962 20.9216C6.07167 21.2828 7.06491 21.363 8.4248 21.3864L8.45279 19.7617ZM1.82841 17.5504C2.46063 19.0767 3.6733 20.2894 5.19962 20.9216L5.82147 19.4203C4.69332 18.953 3.79701 18.0567 3.32972 16.9286L1.82841 17.5504ZM23.0209 12.4583C23.0209 13.7313 23.0205 14.6454 22.9713 15.3667C22.9225 16.0807 22.8287 16.5464 22.6705 16.9286L24.1717 17.5504C24.4258 16.9372 24.5381 16.2741 24.5925 15.4773C24.6463 14.6879 24.6459 13.7091 24.6459 12.4583H23.0209ZM17.5753 21.3864C18.9352 21.363 19.9285 21.2828 20.8005 20.9216L20.1787 19.4203C19.6201 19.6517 18.9074 19.7382 17.5474 19.7617L17.5753 21.3864ZM22.6705 16.9286C22.2031 18.0567 21.3069 18.953 20.1787 19.4203L20.8005 20.9216C22.3268 20.2894 23.5395 19.0767 24.1717 17.5504L22.6705 16.9286ZM14.6251 2.97913C16.4139 2.97913 17.6985 2.97998 18.7005 3.07525C19.6904 3.16937 20.3203 3.34988 20.8224 3.6576L21.6715 2.27206C20.871 1.78158 19.9631 1.56298 18.8543 1.45755C17.7575 1.35327 16.3825 1.35413 14.6251 1.35413V2.97913ZM24.6459 11.375C24.6459 9.61759 24.6468 8.2425 24.5425 7.14575C24.437 6.0369 24.2184 5.12895 23.728 4.32856L22.3424 5.17762C22.6502 5.67978 22.8307 6.30966 22.9248 7.29956C23.02 8.30154 23.0209 9.58612 23.0209 11.375H24.6459ZM20.8224 3.6576C21.442 4.03724 21.9628 4.55811 22.3424 5.17762L23.728 4.32856C23.2144 3.49039 22.5097 2.78569 21.6715 2.27206L20.8224 3.6576ZM11.3751 1.35413C9.61771 1.35413 8.24262 1.35327 7.14587 1.45755C6.03702 1.56298 5.12907 1.78158 4.32868 2.27206L5.17774 3.6576C5.6799 3.34988 6.30978 3.16937 7.29968 3.07525C8.30166 2.97998 9.58624 2.97913 11.3751 2.97913V1.35413ZM2.97925 11.375C2.97925 9.58612 2.9801 8.30154 3.07537 7.29956C3.16949 6.30966 3.35 5.67978 3.65772 5.17762L2.27218 4.32856C1.7817 5.12895 1.5631 6.0369 1.45767 7.14575C1.35339 8.2425 1.35425 9.61759 1.35425 11.375H2.97925ZM4.32868 2.27206C3.49052 2.78569 2.78581 3.49039 2.27218 4.32856L3.65772 5.17762C4.03736 4.55811 4.55823 4.03724 5.17774 3.6576L4.32868 2.27206ZM11.9347 21.7639C11.7148 21.3923 11.5218 21.0644 11.334 20.8068C11.1362 20.5355 10.9095 20.2912 10.5949 20.1083L9.77794 21.513C9.8293 21.5428 9.89928 21.5973 10.0208 21.7639C10.1522 21.9444 10.3008 22.1937 10.5364 22.5917L11.9347 21.7639ZM8.4248 21.3864C8.90048 21.3946 9.20177 21.4007 9.43145 21.426C9.64607 21.4499 9.72926 21.4846 9.77794 21.513L10.5949 20.1083C10.2778 19.9238 9.94775 19.8483 9.6103 19.8109C9.28792 19.7752 8.89831 19.7694 8.45279 19.7617L8.4248 21.3864ZM15.4638 22.5917C15.6993 22.1937 15.8478 21.9444 15.9794 21.7639C16.1008 21.5973 16.1708 21.5428 16.2221 21.513L15.4052 20.1083C15.0907 20.2912 14.8638 20.5355 14.6661 20.8068C14.4784 21.0644 14.2853 21.3923 14.0653 21.7639L15.4638 22.5917ZM17.5474 19.7617C17.1018 19.7694 16.7122 19.7752 16.3898 19.8109C16.0524 19.8483 15.7224 19.9238 15.4052 20.1083L16.2221 21.513C16.2709 21.4846 16.3541 21.4499 16.5687 21.426C16.7984 21.4007 17.0996 21.3946 17.5753 21.3864L17.5474 19.7617Z" fill="white"/>
<path d="M8.66675 11.9166H8.6765M12.9903 11.9166H13.0001M17.3237 11.9166H17.3334" stroke="white" stroke-width="3" stroke-linecap="round" stroke-linejoin="round"/>
</svg>
