<svg width="40" height="40" viewBox="0 0 40 40" fill="none" xmlns="http://www.w3.org/2000/svg">
<path d="M20.662 30.2139L19.3407 31.5695C18.7812 32.1435 17.8766 32.1435 17.323 31.5695L5.75291 19.7048C5.19345 19.1308 5.19345 18.2026 5.75291 17.6347L17.323 5.76384C17.8825 5.18984 18.7872 5.18984 19.3407 5.76384L20.662 7.11947C21.2274 7.69958 21.2155 8.64607 20.6382 9.21396L13.4663 16.2241H30.5716C31.3631 16.2241 32 16.8775 32 17.6897V19.6437C32 20.4559 31.3631 21.1092 30.5716 21.1092H13.4663L20.6382 28.1194C21.2214 28.6873 21.2333 29.6338 20.662 30.2139Z" fill="url(#paint0_linear_1857_13887)"/>
<defs>
<linearGradient id="paint0_linear_1857_13887" x1="5.33331" y1="18.6667" x2="32" y2="18.6667" gradientUnits="userSpaceOnUse">
<stop offset="0.9999" stop-color="white"/>
<stop offset="1" stop-color="#A89BFF"/>
</linearGradient>
</defs>
</svg>
