<svg width="18" height="20" viewBox="0 0 18 20" fill="none" xmlns="http://www.w3.org/2000/svg">
<path d="M0.565353 3.97408C0.199965 3.61412 -0.000837326 3.1316 3.8147e-06 2.61543C0.00088501 2.09927 0.203241 1.61743 0.569849 1.25866C0.936457 0.899935 1.41892 0.711237 1.92861 0.728206C2.43822 0.744877 2.90775 0.964407 3.2507 1.34635L3.42357 1.53888L3.59761 1.36268C4.14691 0.806373 4.8774 0.5 5.65447 0.5C6.43155 0.5 7.16203 0.806373 7.71125 1.36264C8.26059 1.91878 8.5631 2.65826 8.5631 3.44486C8.5631 4.23176 8.26055 4.97137 7.71125 5.52751L7.34132 5.90205L8.08702 6.7325C9.13294 7.8973 10.165 9.08243 11.1812 10.2842L12.2191 9.23332C12.7329 8.71325 13.4159 8.42682 14.1423 8.42682C14.8688 8.42682 15.5518 8.71325 16.0655 9.23332C16.5791 9.75327 16.862 10.4447 16.862 11.1803C16.862 11.9162 16.5791 12.6078 16.0655 13.1277L14.6625 14.5481C15.7732 15.9569 16.8597 17.3824 17.9169 18.8208C18.043 18.9923 18.0237 19.2319 17.8718 19.3805C17.7908 19.4598 17.6855 19.5 17.5798 19.5C17.4874 19.5 17.3948 19.4693 17.3178 19.4071C15.9426 18.2956 14.581 17.1555 13.2365 15.9918L11.9218 17.3228C11.8397 17.4058 11.7322 17.4473 11.6247 17.4473C11.5172 17.4473 11.4097 17.4058 11.3277 17.3228C11.1636 17.1567 11.1636 16.8874 11.3277 16.7213L12.5975 15.4358C11.6477 14.6047 10.707 13.762 9.77702 12.9086L8.20149 14.5036C7.49743 15.2163 6.56127 15.6088 5.56541 15.6088C4.56956 15.6088 3.6334 15.2164 2.92938 14.5036C2.22503 13.7908 1.83716 12.843 1.83716 11.8349C1.83716 10.8267 2.22502 9.87899 2.92934 9.16621L4.36271 7.71511L1.43535 4.83124C1.29252 5.07884 1.21602 5.36122 1.21602 5.65556C1.21602 6.0933 1.38439 6.50485 1.69021 6.81445L1.82523 6.95118C1.98927 7.11725 1.98923 7.38654 1.82519 7.55261C1.74315 7.63563 1.63569 7.67713 1.52819 7.67713C1.42069 7.67713 1.31315 7.63558 1.2311 7.55253L1.09613 7.41584C0.631683 6.94565 0.375895 6.32053 0.375895 5.65556C0.375895 5.13659 0.532335 4.64224 0.821564 4.22653L0.565353 3.97408ZM7.11717 4.92607C7.5078 4.5306 7.72297 4.00457 7.72297 3.44486C7.72297 2.88545 7.5078 2.35954 7.11712 1.96403C6.72653 1.56843 6.20709 1.35056 5.65447 1.35056C5.10185 1.35056 4.58242 1.56843 4.19178 1.96407L3.98938 2.16897L6.77555 5.27191L7.11717 4.92607ZM7.46533 7.30463L3.39462 2.77113L2.98962 3.18114L3.8421 4.07398C4.00333 4.24286 3.99879 4.5121 3.83198 4.67533C3.75044 4.75511 3.64521 4.79483 3.54006 4.79483C3.43016 4.79483 3.3204 4.75141 3.23798 4.66512L1.49404 2.83854C1.33281 2.66966 1.33734 2.40041 1.50416 2.23719C1.67097 2.07397 1.93693 2.07856 2.09816 2.2474L2.40566 2.56946L2.82886 2.14103L2.62906 1.91853C2.44032 1.70835 2.18197 1.58757 1.90152 1.57839C1.89009 1.578 1.87866 1.57783 1.86728 1.57783C1.59956 1.57783 1.34734 1.68092 1.15385 1.87026C0.952082 2.06767 0.840717 2.33284 0.840256 2.61688C0.839794 2.90093 0.950277 3.16643 1.15137 3.36453L6.30418 8.44085C7.4329 9.5528 8.58272 10.6509 9.74992 11.733L10.5852 10.8874C9.56084 9.67498 8.52021 8.47943 7.46533 7.30463ZM15.4714 12.5262C15.8263 12.167 16.0218 11.6889 16.0218 11.1803C16.0218 10.6719 15.8263 10.194 15.4714 9.83476C15.1164 9.47531 14.6443 9.27738 14.1423 9.27738C13.6402 9.27738 13.1682 9.47531 12.8132 9.83476L11.7273 10.934C12.5406 11.9062 13.343 12.889 14.1335 13.8808L15.4714 12.5262ZM15.0838 16.4603C13.8004 14.795 12.4807 13.1517 11.1314 11.5374L10.3718 12.3064C11.9152 13.7221 13.4881 15.1091 15.0838 16.4603ZM3.52338 9.7676C2.97782 10.3197 2.67733 11.0539 2.67733 11.8348C2.67733 12.6157 2.97777 13.3499 3.52342 13.902C4.06878 14.4541 4.79401 14.7582 5.56541 14.7582C6.33682 14.7582 7.06205 14.4541 7.6074 13.902L9.15517 12.3351C7.99103 11.2553 6.8442 10.1596 5.71824 9.05041L4.9649 8.30825L3.52338 9.7676Z" fill="url(#paint0_linear_1967_9864)"/>
<defs>
<linearGradient id="paint0_linear_1967_9864" x1="9" y1="0.5" x2="9" y2="19.5" gradientUnits="userSpaceOnUse">
<stop stop-color="#A89BFF"/>
<stop offset="1" stop-color="#C98FEC"/>
</linearGradient>
</defs>
</svg>
