<svg width="40" height="40" viewBox="0 0 40 40" fill="none" xmlns="http://www.w3.org/2000/svg">
<rect width="40" height="40" rx="10" fill="url(#paint0_linear_372_35156)"/>
<path d="M18.3018 10.4282L19.3857 9.34424C19.8447 8.88525 20.5869 8.88525 21.041 9.34424L30.5332 18.8315C30.9922 19.2905 30.9922 20.0327 30.5332 20.4868L21.041 29.979C20.582 30.438 19.8398 30.438 19.3857 29.979L18.3018 28.895C17.8379 28.4312 17.8477 27.6743 18.3213 27.2202L24.2051 21.6147H10.1719C9.52246 21.6147 9 21.0923 9 20.4429V18.8804C9 18.231 9.52246 17.7085 10.1719 17.7085H24.2051L18.3213 12.103C17.8428 11.6489 17.833 10.8921 18.3018 10.4282Z" fill="white"/>
<defs>
<linearGradient id="paint0_linear_372_35156" x1="0" y1="20" x2="40" y2="20" gradientUnits="userSpaceOnUse">
<stop stop-color="#C98FEC"/>
<stop offset="1" stop-color="#A89BFF"/>
</linearGradient>
</defs>
</svg>
