<svg width="21" height="14" viewBox="0 0 21 14" fill="none" xmlns="http://www.w3.org/2000/svg">
<path fill-rule="evenodd" clip-rule="evenodd" d="M0.5 1.44445C0.5 0.830803 0.997467 0.333336 1.61111 0.333336H19.3889C20.0026 0.333336 20.5 0.830803 20.5 1.44445C20.5 2.05809 20.0026 2.55556 19.3889 2.55556H1.61111C0.997467 2.55556 0.5 2.05809 0.5 1.44445ZM3.83333 7C3.83333 6.38634 4.3308 5.88889 4.94444 5.88889H16.0556C16.6692 5.88889 17.1667 6.38634 17.1667 7C17.1667 7.61367 16.6692 8.11111 16.0556 8.11111H4.94444C4.3308 8.11111 3.83333 7.61367 3.83333 7ZM7.16667 12.5556C7.16667 11.9419 7.66413 11.4444 8.27778 11.4444H12.7222C13.3359 11.4444 13.8333 11.9419 13.8333 12.5556C13.8333 13.1692 13.3359 13.6667 12.7222 13.6667H8.27778C7.66413 13.6667 7.16667 13.1692 7.16667 12.5556Z" fill="black"/>
</svg>