<svg width="90" height="90" viewBox="0 0 90 90" fill="none" xmlns="http://www.w3.org/2000/svg">
<g id="image-plus_svgrepo.com">
<path id="Vector" d="M53.3317 59.4615L47.0137 53.2067C44.1099 50.3322 42.6579 48.8948 40.9862 48.3556C39.5158 47.8811 37.9331 47.8811 36.4624 48.3556C34.7908 48.8948 33.3389 50.3322 30.435 53.2067L15.7236 67.9983M53.3317 59.4615L54.5873 58.2179C57.5525 55.2828 59.0347 53.8153 60.7358 53.2798C62.2316 52.8086 63.8389 52.827 65.3237 53.3323C67.0116 53.9071 68.46 55.408 71.3563 58.4104L74.4311 61.5269M53.3317 59.4615L67.8827 74.2439M15.7236 67.9983C15.8366 68.9547 16.0322 69.7057 16.3713 70.3701C17.0767 71.7521 18.2023 72.8759 19.5867 73.5799C21.1606 74.3805 23.221 74.3805 27.3417 74.3805H62.6588C64.9444 74.3805 66.5962 74.3805 67.8827 74.2439M15.7236 67.9983C15.5693 66.6924 15.5693 65.003 15.5693 62.6283V27.3717C15.5693 23.258 15.5693 21.2012 16.3713 19.63C17.0767 18.2479 18.2023 17.1242 19.5867 16.42C21.1606 15.6195 23.221 15.6195 27.3417 15.6195H41.3214M67.8827 74.2439C68.9154 74.1341 69.713 73.9365 70.4138 73.5799C71.7982 72.8759 72.9239 71.7521 73.6291 70.3701C74.4311 68.799 74.4311 66.742 74.4311 62.6283V48.6726M67.0734 33.9823V22.9646M67.0734 22.9646V11.9469M67.0734 22.9646H78.11M67.0734 22.9646H56.0368" stroke="#A89BFF" stroke-width="5" stroke-linecap="round" stroke-linejoin="round"/>
</g>
</svg>
