<svg width="34" height="34" viewBox="0 0 34 34" fill="none" xmlns="http://www.w3.org/2000/svg">
<path d="M9.91667 17C9.91667 18.5188 8.64814 19.75 7.08333 19.75C5.51853 19.75 4.25 18.5188 4.25 17C4.25 15.4812 5.51853 14.25 7.08333 14.25C8.64814 14.25 9.91667 15.4812 9.91667 17Z" fill="#413946"/>
<path d="M29.7499 17C29.7499 18.5188 28.4814 19.75 26.9166 19.75C25.3517 19.75 24.0833 18.5188 24.0833 17C24.0833 15.4812 25.3517 14.25 26.9166 14.25C28.4814 14.25 29.7499 15.4812 29.7499 17Z" fill="#413946"/>
<path d="M19.8334 17C19.8334 18.5188 18.5649 19.75 17.0001 19.75C15.4352 19.75 14.1667 18.5188 14.1667 17C14.1667 15.4812 15.4352 14.25 17.0001 14.25C18.5649 14.25 19.8334 15.4812 19.8334 17Z" fill="#413946"/>
</svg>
