<svg width="44" height="40" viewBox="0 0 44 40" fill="none" xmlns="http://www.w3.org/2000/svg">
<path d="M20.9486 20.0059H6.47379M6.06351 21.8683L3.67207 28.8801C2.3623 32.7202 1.70741 34.6403 2.17739 35.8226C2.5855 36.8496 3.46207 37.628 4.54372 37.9245C5.78925 38.2655 7.67049 37.4346 11.433 35.7729L35.5539 25.1188C39.2265 23.4966 41.0627 22.6857 41.6301 21.559C42.1233 20.5802 42.1233 19.4315 41.6301 18.4526C41.0627 17.3261 39.2265 16.515 35.5539 14.8929L11.3914 4.22063C7.64022 2.56381 5.76467 1.73538 4.52037 2.07522C3.43975 2.37035 2.56327 3.14677 2.15373 4.17171C1.68213 5.35191 2.33002 7.26786 3.62583 11.0998L6.06815 18.3223C6.29069 18.9804 6.40199 19.3095 6.4459 19.6459C6.48489 19.9447 6.48448 20.247 6.44473 20.5456C6.39992 20.882 6.28779 21.2107 6.06351 21.8683Z" stroke="url(#paint0_linear_550_16642)" stroke-width="3" stroke-linecap="round" stroke-linejoin="round"/>
<defs>
<linearGradient id="paint0_linear_550_16642" x1="2" y1="20.8379" x2="42" y2="20.8379" gradientUnits="userSpaceOnUse">
<stop stop-color="#C98FEC"/>
<stop offset="1" stop-color="#A89BFF"/>
</linearGradient>
</defs>
</svg>
