<svg width="38" height="38" viewBox="0 0 38 38" fill="none" xmlns="http://www.w3.org/2000/svg">
<path fill-rule="evenodd" clip-rule="evenodd" d="M33.604 2.72247L24.9434 11.3913C24.9063 11.4285 24.8674 11.4625 24.8269 11.4938C24.7953 11.5349 24.7607 11.5746 24.7231 11.6123L20.6927 15.6464L22.3689 17.3241L35.2803 4.40046C35.7444 3.93604 35.7444 3.18571 35.2793 2.7214C34.8178 2.25821 34.0666 2.25821 33.604 2.72247ZM24.0459 19.0026L36.9573 6.07893C38.3477 4.68709 38.3477 2.43228 36.9563 1.04292C35.5701 -0.347996 33.3143 -0.347996 31.926 1.04506L23.2664 9.71287C23.2288 9.75061 23.1942 9.79026 23.1625 9.83144C23.1221 9.86266 23.0832 9.89672 23.0461 9.93387L19.0159 13.9679L18.2596 13.2108C18.2479 13.1991 18.236 13.1878 18.224 13.1766L6.1228 1.06393C4.7356 -0.328057 2.47973 -0.328057 1.09151 1.065C-0.295185 2.45661 -0.295185 4.70976 1.09257 6.09887L13.985 19.0035L1.11463 31.8861C0.967524 32.0288 0.764821 32.27 0.566161 32.593C-0.26042 33.937 -0.26381 35.5195 1.10573 36.8884C2.49976 38.2533 4.06518 38.2552 5.41183 37.4671C5.73494 37.2779 5.97755 37.0844 6.13395 36.9317L16.5391 26.517C17.0021 26.0535 17.0021 25.302 16.5391 24.8385C16.0759 24.3751 15.3252 24.3751 14.8621 24.8385L4.46786 35.2426C4.45031 35.2596 4.35391 35.3365 4.21482 35.4179C3.70851 35.7143 3.29718 35.7138 2.80071 35.2279C2.28418 34.7117 2.28501 34.3262 2.58573 33.8373C2.66992 33.7005 2.75007 33.6051 2.77889 33.5771L19.0159 17.3248L20.692 19.0026L18.3859 21.3109C18.2304 21.4665 18.1271 21.6546 18.076 21.8534C17.813 22.3075 17.8756 22.8988 18.264 23.2875L31.919 36.9555C33.3094 38.3471 35.5612 38.3471 36.9516 36.9555C38.3393 35.5628 38.3393 33.3097 36.9516 31.9206L24.0459 19.0026ZM22.3689 20.6811L20.6914 22.3602L33.596 35.277C34.0601 35.7417 34.8105 35.7417 35.2736 35.2781C35.7367 34.8134 35.7367 34.0614 35.2746 33.599L22.3689 20.6811ZM17.3383 15.6471L15.6619 17.3251L2.76952 4.4204C2.30747 3.958 2.30747 3.206 2.77059 2.74134C3.23208 2.27815 3.98325 2.27815 4.44474 2.74134L17.3383 15.6471Z" fill="#413946"/>
</svg>
